<svg xmlns="http://www.w3.org/2000/svg" viewBox="0 0 128 128"><defs><linearGradient id="g" x1="0" y1="0" x2="1" y2="1"><stop stop-color="#72e8ff"/><stop offset="1" stop-color="#6b63ff"/></linearGradient></defs><rect x="8" y="8" width="112" height="112" rx="30" fill="#111a2b" stroke="#334361" stroke-width="4"/><path d="M36 76c-9 0-16-7-16-16s7-16 16-16c3-13 14-22 28-22 12 0 23 8 27 19 1 0 3-1 5-1 9 0 16 7 16 16s-7 16-16 16H36Z" fill="url(#g)"/><path d="M43 62h14m-7-7v14M78 58h2m10 0h2" stroke="#fff" stroke-width="5" stroke-linecap="round"/></svg>
